<?xml version="1.0" encoding="UTF-8"?>
<svg viewBox="0 0 101.57778 100.8053" xmlns="http://www.w3.org/2000/svg" height="81px">
  <defs>
    <linearGradient id="grad1" x1="0%" y1="100%" x2="0%" y2="0%">
      <stop offset="0%" style="stop-color:rgb(146,208,80);stop-opacity:1" />
      <stop offset="75%" style="stop-color:rgb(14,115,173);stop-opacity:1" />
      <stop offset="100%" style="stop-color:rgb(31,73,125);stop-opacity:1" />
    </linearGradient>
  </defs>
 <g transform="translate(-101.37 -97.674)" fill="url(#grad1)">
  <path d="m169.5754,196.9267c-.1886-.8589.0134-1.3274.996-2.31 .678-.678 1.7065-1.3304 2.2857-1.4498 1.3854-.2857 5.2538-1.7693 5.8796-2.2549 .2709-.2102.4925-.6141.4925-.8975 0-.772-6.6659-6.0863-7.6343-6.0863-.4616,0-2.0798.3644-3.5961.8098-3.4618,1.0169-10.4489,1.4599-16.3898,1.0391-7.1408-.5058-6.6473-.5856-8.3439,1.3494-.8327.9497-1.9642,2.5979-2.5144,3.6627-1.164,2.2525-4.5952,6.5163-5.8025,7.2105-1.0288.5915-4.5445.6484-5.9949.097-.7172-.2727-1.4467-.2806-2.1839-.0235-2.4985.871-1.4597-1.341 1.2885-2.7437 .7854-.4008 1.9099-1.3016 2.499-2.0016 1.0163-1.2078 1.0634-1.4452.9212-4.6468-.1262-2.8412-.383-3.9062-1.6262-6.7446-2.6443-6.0373-7.3573-11.0992-12.6779-13.6167-1.5889-.7518-2.6201-.9328-5.3301-.9359-3.0016-.004-3.6532-.1451-6.107-1.3278-5.2109-2.5116-5.8227-4.8841-1.4913-5.7833 1.8591-.386 2.618-.8205 4.4337-2.5389 1.2049-1.1403 2.7581-2.3619 3.4516-2.7146 1.9684-1.001 7.7871-.8452 13.8161.37 5.7138,1.1517 10.3391,1.3571 13.4881.599 1.1919-.2869 4.6492-1.5446 7.683-2.7949 9.8002-4.0389 14.3108-4.9373 19.1091-3.806 1.4086.3321 2.7106.4572 2.8935.2781 1.0375-1.0164-1.1645-3.1382-6.6365-6.3947-5.6439-3.3588-9.8091-9.1231-10.7644-14.8968-.6095-3.6839.7236-12.0811 1.2923-13.5962s1.4436-3.3754 1.9442-4.1338c2.9223-4.4276 8.177-9.1772 12.2559-11.0778 6.691-3.1177 17.7541-2.3107 25.8474,1.8855 3.5353,1.8329 6.7739,4.7994 8.0035,7.3309 1.3563,2.7924 2.3788,9.4802 1.6321,10.6754-.2883.4615-1.0187,1.9915-1.6231,3.4001-1.0066,2.3457-2.3392,4.3362-2.9009,4.3326-.1248-.0008-.8183-1.1453-1.5412-2.5434-1.642-3.1756-6.3156-7.6992-7.9544-7.6992-.5848,0-2.2156.5225-3.624,1.1611-3.1804,1.4421-4.0269,2.8569-3.7769,6.3127 .2425,3.3521 2.1549,6.8946 9.8511,18.2473 3.3307,4.9132 4.5143,10.219 3.7106,16.6342-.409,3.2645-.7758,4.5016-2.1395,7.2158-.9053,1.8017-2.1169,3.8932-2.6925,4.6478-1.3686,1.7943-3.6317,10.2022-4.0199,14.9346-.3463,4.2221-1.4143,6.7775-3.7479,8.9681l-1.5853,1.4881c0,0-10.8695,1.3087-11.0759.3693zm-.9499-19.4816c5.4569-.8433 10.3159-2.9685 15.3046-6.694 2.2799-1.7026 7.2867-9.9628 7.5373-11.1699 1.1907-5.7355-.8174-10.3477-8.1457-18.7087-1.1819-1.3484-3.251-4.3133-4.5981-6.5886 0,0-1.8245-3.0395-2.2503-4.734-.4037-1.6068-.2413-4.9643-.2413-4.9643-.0233-3.0587 1.7125-7.8175 2.7258-8.9913 2.4126-2.7945 5.1792-3.9299 8.9395-3.6689 2.4539.1704 6.2631,1.6358 6.8904,2.6509 .4646.7518 1.7776.4518 1.7776-.4061 0-2.1062-2.1313-4.3793-5.8702-6.261-8.5709-4.3134-18.1202-1.6112-22.0888,6.2506-.842,1.6679-1.9752,7.8544-1.5778,9.9776 .9814,5.2435 7.314,15.0662 15.2165,23.6023 2.3474,2.5357 2.891,3.3814 3.2505,5.0579 .6239,2.909.5376,3.9625-.4568,5.5804-2.2494,3.6597-6.0764,5.9532-12.4243,7.446-5.4931,1.2918-14.0846.8025-19.9317-1.135-2.8291-.9375-3.2146-1.1799-3.3203-2.0877-.2603-2.2347 5.8542-6.1292 12.2943-7.8306 1.712-.4523 3.469-1.013 3.9045-1.2461 2.613-1.3985-5.139-1.3894-10.0011.0116-1.4244.4105-4.1726,1.3784-6.107,2.151-4.0916,1.6341-9.9725,3.2146-13.4121,3.6046-1.9171.2173-3.2711.0654-6.6311-.7444-6.6813-1.6101-8.8678-1.2892-6.6918.982 1.1258,1.1751 6.0865,4.3046 6.8233,4.3046 .2254,0 .5889.3347.8078.7438 .5081.9495 5.6856,4.2866 11.2527,7.2529 3.5996,1.918 5.4022,2.5812 10.6381,3.9141 3.4672.8826 7.7224,1.7278 9.456,1.8781s3.1675.3007 3.1864.3343 1.7032-.1969 3.743-.5121zm-55.6624-16.0692c.0817-.431-.2513-.8589-.8977-1.1534-.8518-.3881-1.1373-.3585-1.6687.1729-.5386.5386-.5574.742-.1177,1.2718 .6772.816 2.5119.6169 2.6841-.2913zm7.5599-.1152c0-.9521-.9427-1.7372-1.4623-1.2177-.3014.3014.679,2.2151 1.1348,2.2151 .1801,0 .3274-.4488.3274-.9974z"/>
 </g>
</svg>
